<?xml version="1.0" encoding="utf-8"?>
<svg version="1.1" xmlns:xlink="http://www.w3.org/1999/xlink" width="9px" height="5px" xmlns="http://www.w3.org/2000/svg">
  <g transform="matrix(1 0 0 1 -172 -129 )">
    <path d="M 8.146446609406727 4.853553390593274  C 8.146446609406727 4.853553390593274  4.5 1.2071067811865477  4.5 1.2071067811865477  C 4.5 1.2071067811865477  0.853553390593274 4.853553390593274  0.853553390593274 4.853553390593274  C 0.6582912447176388 5.04881553646891  0.3417087552823612 5.04881553646891  0.14644660940672616 4.853553390593274  C -0.048815536468908745 4.658291244717638  -0.048815536468908745 4.341708755282361  0.14644660940672616 4.146446609406725  C 0.14644660940672616 4.146446609406725  4.146446609406725 0.14644660940672682  4.146446609406725 0.14644660940672682  C 4.341708755282362 -0.04881553646891024  4.658291244717638 -0.04881553646891024  4.853553390593274 0.14644660940672682  C 4.853553390593274 0.14644660940672682  8.853553390593273 4.146446609406725  8.853553390593273 4.146446609406725  C 9.048815536468906 4.341708755282361  9.048815536468906 4.658291244717638  8.853553390593273 4.853553390593274  C 8.658291244717638 5.04881553646891  8.341708755282362 5.04881553646891  8.146446609406727 4.853553390593274  Z " fill-rule="nonzero" fill="#333333" stroke="none" transform="matrix(1 0 0 1 172 129 )" />
  </g>
</svg>