<?xml version="1.0" encoding="utf-8"?>
<svg version="1.1" xmlns:xlink="http://www.w3.org/1999/xlink" width="11px" height="6px" xmlns="http://www.w3.org/2000/svg">
  <g transform="matrix(1 0 0 1 -207 -422 )">
    <path d="M 1.043231921836223 5.824264068711928  C 1.043231921836223 5.824264068711928  5.5 1.4485281374238572  5.5 1.4485281374238572  C 5.5 1.4485281374238572  9.956768078163776 5.824264068711928  9.956768078163776 5.824264068711928  C 10.195421812011775 6.058578643762691  10.582355965766002 6.058578643762691  10.821009699614002 5.824264068711928  C 11.059663433462001 5.589949493661166  11.059663433462001 5.210050506338833  10.821009699614002 4.975735931288071  C 10.821009699614002 4.975735931288071  5.932120810725113 0.1757359312880722  5.932120810725113 0.1757359312880722  C 5.6934670768771145 -0.058578643762692284  5.3065329231228855 -0.058578643762692284  5.067879189274887 0.1757359312880722  C 5.067879189274887 0.1757359312880722  0.17899030038599972 4.975735931288071  0.17899030038599972 4.975735931288071  C -0.05966343346199543 5.210050506338833  -0.05966343346199543 5.589949493661166  0.17899030038599972 5.824264068711928  C 0.4176440342339973 6.058578643762691  0.8045781879882242 6.058578643762691  1.043231921836223 5.824264068711928  Z " fill-rule="nonzero" fill="#ffffff" stroke="none" transform="matrix(1 0 0 1 207 422 )" />
  </g>
</svg>