<?xml version="1.0" encoding="utf-8"?>
<svg version="1.1" xmlns:xlink="http://www.w3.org/1999/xlink" width="12px" height="12px" xmlns="http://www.w3.org/2000/svg">
  <g>
    <path d="M 11.461352666015621 10.700839957031253  L 6.796495763671875 6.0219526875  L 11.459629078125001 1.383009667968751  C 11.680123628906248 1.1636339121093755  11.681242441406248 0.8081272675781257  11.461866685546877 0.5876326992187506  C 11.241916406249999 0.3665636250000006  10.886984285156249 0.36601933593750036  10.666489716796875 0.5853950917968753  L 6.0022376074218755 5.224882400390625  L 1.3785042363281255 0.5870581933593746  C 1.15970300390625 0.36768243749999974  0.8036218359375003 0.36656364257812457  0.5831272675781252 0.5859393984374994  C 0.3631769882812502 0.805315154296875  0.36263271679687514 1.1613660878906247  0.58200847265625 1.3818908906249998  L 5.204623048828125 6.018566068359374  L 0.5437575761718754 10.654696957031248  C 0.32326302539062546 10.874072712890626  0.3221442128906252 11.229579357421876  0.5415199687500001 11.450073925781247  C 0.6511927207031252 11.560321201171874  0.7957599843750004 11.61601937109375  0.940327248046875 11.61601937109375  C 1.0837757167968753 11.61601937109375  1.2271939335937505 11.561470248046874  1.3368969375000002 11.452341767578126  L 5.998911457031252 6.81509206640625  L 10.66485690234375 11.495098113281252  C 10.774529654296874 11.605345388671875  10.918552646484375 11.660469035156254  11.06311991015625 11.660469035156254  C 11.207112650390624 11.660469035156254  11.350561119140625 11.605345388671875  11.460233871093749 11.496216925781251  C 11.680184150390627 11.276841169921877  11.680728421875 10.921334525390627  11.461352666015621 10.700839957031253  Z " fill-rule="nonzero" fill="#272636" stroke="none" />
  </g>
</svg>