<?xml version="1.0" encoding="utf-8"?>
<svg version="1.1" xmlns:xlink="http://www.w3.org/1999/xlink" width="16px" height="16px" xmlns="http://www.w3.org/2000/svg">
  <g transform="matrix(1 0 0 1 -1719 -847 )">
    <path d="M 11.333333333333334 5.333333333333334  C 11.611111111111112 5.333333333333334  11.809027777777779 5.454861111111111  11.927083333333334 5.697916666666666  C 12.052083333333334 5.940972222222221  12.034722222222223 6.1701388888888875  11.875 6.385416666666666  L 8.541666666666666 11.052083333333332  C 8.409722222222223 11.239583333333332  8.229166666666668 11.333333333333332  8 11.333333333333332  C 7.770833333333333 11.333333333333332  7.590277777777779 11.239583333333332  7.458333333333333 11.052083333333332  L 4.125 6.385416666666666  C 3.965277777777778 6.1701388888888875  3.9479166666666665 5.940972222222221  4.072916666666667 5.697916666666666  C 4.190972222222222 5.454861111111111  4.388888888888889 5.333333333333334  4.666666666666667 5.333333333333334  L 11.333333333333334 5.333333333333334  Z M 13.234375 13.234375  C 13.300347222222223 13.168402777777779  13.333333333333334 13.090277777777779  13.333333333333334 13  L 13.333333333333334 3  C 13.333333333333334 2.9097222222222214  13.300347222222223 2.8315972222222214  13.234375 2.765625  C 13.168402777777779 2.699652777777777  13.090277777777779 2.666666666666666  13 2.666666666666666  L 3 2.666666666666666  C 2.9097222222222228 2.666666666666666  2.8315972222222228 2.699652777777777  2.765625 2.765625  C 2.699652777777778 2.8315972222222214  2.6666666666666665 2.9097222222222214  2.6666666666666665 3  L 2.6666666666666665 13  C 2.6666666666666665 13.090277777777779  2.699652777777778 13.168402777777779  2.765625 13.234375  C 2.8315972222222228 13.300347222222221  2.9097222222222228 13.333333333333334  3 13.333333333333334  L 13 13.333333333333334  C 13.090277777777779 13.333333333333334  13.168402777777779 13.300347222222221  13.234375 13.234375  Z M 15.119791666666666 0.8802083333333339  C 15.706597222222221 1.4670138888888875  16 2.173611111111109  16 3  L 16 13  C 16 13.826388888888888  15.706597222222221 14.532986111111112  15.119791666666666 15.119791666666666  C 14.532986111111112 15.706597222222221  13.826388888888891 16  13 16  L 3 16  C 2.173611111111111 16  1.467013888888889 15.706597222222221  0.8802083333333334 15.119791666666666  C 0.29340277777777773 14.532986111111112  0 13.826388888888888  0 13  L 0 3  C 0 2.173611111111109  0.29340277777777773 1.4670138888888875  0.8802083333333334 0.8802083333333339  C 1.467013888888889 0.2934027777777768  2.173611111111111 0  3 0  L 13 0  C 13.826388888888891 0  14.532986111111112 0.2934027777777768  15.119791666666666 0.8802083333333339  Z " fill-rule="nonzero" fill="#797979" stroke="none" transform="matrix(1 0 0 1 1719 847 )" />
  </g>
</svg>