<?xml version="1.0" encoding="utf-8"?>
<svg version="1.1" xmlns:xlink="http://www.w3.org/1999/xlink" width="12px" height="12px" xmlns="http://www.w3.org/2000/svg">
  <g transform="matrix(1 0 0 1 -2 -2 )">
    <path d="M 10.508522727272748 10.508522727272748  C 10.775568181818244 10.241477272727252  10.909090909090992 9.920454545454504  10.909090909090992 9.545454545454504  L 10.909090909090992 2.454545454545496  C 10.909090909090992 2.079545454545496  10.775568181818244 1.758522727272748  10.508522727272748 1.491477272727252  C 10.241477272727252 1.2244318181817562  9.920454545454504 1.0909090909090082  9.545454545454504 1.0909090909090082  L 2.454545454545496 1.0909090909090082  C 2.079545454545496 1.0909090909090082  1.758522727272748 1.2244318181817562  1.491477272727252 1.491477272727252  C 1.2244318181817562 1.758522727272748  1.0909090909090082 2.079545454545496  1.0909090909090082 2.454545454545496  L 1.0909090909090082 9.545454545454504  C 1.0909090909090082 9.920454545454504  1.2244318181817562 10.241477272727252  1.491477272727252 10.508522727272748  C 1.758522727272748 10.775568181818244  2.079545454545496 10.909090909090992  2.454545454545496 10.909090909090992  L 9.545454545454504 10.909090909090992  C 9.920454545454504 10.909090909090992  10.241477272727252 10.775568181818244  10.508522727272748 10.508522727272748  Z M 11.279829545454504 0.7201704545454959  C 11.759943181818244 1.2002840909090082  12 1.7784090909090082  12 2.454545454545496  L 12 9.545454545454504  C 12 10.221590909090992  11.759943181818244 10.799715909090992  11.279829545454504 11.279829545454504  C 10.799715909090992 11.759943181818244  10.221590909090992 12  9.545454545454504 12  L 2.454545454545496 12  C 1.7784090909090082 12  1.2002840909090082 11.759943181818244  0.7201704545454959 11.279829545454504  C 0.24005681818175617 10.799715909090992  0 10.221590909090992  0 9.545454545454504  L 0 2.454545454545496  C 0 1.7784090909090082  0.24005681818175617 1.2002840909090082  0.7201704545454959 0.7201704545454959  C 1.2002840909090082 0.24005681818175617  1.7784090909090082 0  2.454545454545496 0  L 9.545454545454504 0  C 10.221590909090992 0  10.799715909090992 0.24005681818175617  11.279829545454504 0.7201704545454959  Z " fill-rule="nonzero" fill="#555555" stroke="none" transform="matrix(1 0 0 1 2 2 )" />
  </g>
</svg>