<?xml version="1.0" encoding="utf-8"?>
<svg version="1.1" xmlns:xlink="http://www.w3.org/1999/xlink" width="72px" height="28px" xmlns="http://www.w3.org/2000/svg">
  <defs>
    <mask fill="white" id="clip2">
      <path d="M 0 26  L 0 2  C 0 0.8799999999999955  0.8799999999999955 0  2 0  L 53 0  L 54.33333333333212 0  L 70 0  C 71.12 0  72 0.8799999999999955  72 2  L 72 26  C 72 27.11999999999989  71.12 28  70 28  L 54.33333333333212 28  L 46.33333333333212 28  L 34.33333333333212 28  L 2 28  C 0.8799999999999955 28  0 27.11999999999989  0 26  Z " fill-rule="evenodd" />
    </mask>
  </defs>
  <g transform="matrix(1 0 0 1 -705 -1022 )">
    <path d="M 0 26  L 0 2  C 0 0.8799999999999955  0.8799999999999955 0  2 0  L 53 0  L 54.33333333333212 0  L 70 0  C 71.12 0  72 0.8799999999999955  72 2  L 72 26  C 72 27.11999999999989  71.12 28  70 28  L 54.33333333333212 28  L 46.33333333333212 28  L 34.33333333333212 28  L 2 28  C 0.8799999999999955 28  0 27.11999999999989  0 26  Z " fill-rule="nonzero" fill="#ffffff" stroke="none" fill-opacity="0.8666666666666667" transform="matrix(1 0 0 1 705 1022 )" />
    <path d="M 0 26  L 0 2  C 0 0.8799999999999955  0.8799999999999955 0  2 0  L 53 0  L 54.33333333333212 0  L 70 0  C 71.12 0  72 0.8799999999999955  72 2  L 72 26  C 72 27.11999999999989  71.12 28  70 28  L 54.33333333333212 28  L 46.33333333333212 28  L 34.33333333333212 28  L 2 28  C 0.8799999999999955 28  0 27.11999999999989  0 26  Z " stroke-width="2" stroke="#d9d9d9" fill="none" transform="matrix(1 0 0 1 705 1022 )" mask="url(#clip2)" />
  </g>
</svg>