<?xml version="1.0" encoding="utf-8"?>
<svg version="1.1" xmlns:xlink="http://www.w3.org/1999/xlink" width="24px" height="24px" xmlns="http://www.w3.org/2000/svg">
  <g>
    <path d="M 14.408149561941965 11.997840226004463  C 14.408149561941965 13.328261861049107  13.328261861049107 14.408149561941965  11.997840226004463 14.408149561941965  C 10.667418590959823 14.408149561941965  9.587530890066965 13.328261861049109  9.587530890066965 11.997840226004463  C 9.587530890066965 10.66741859095982  10.667418590959823 9.587530890066965  11.997840226004463 9.587530890066965  C 13.328261861049107 9.587530890066965  14.408149561941965 10.667418590959823  14.408149561941965 11.997840226004463  Z M 12.8012766796875 11.997840226004467  C 12.8012766796875 11.557246029575897  12.442753945312498 11.19440377232143  11.997840226004463 11.19440377232143  C 11.5572460546875 11.19440377232143  11.19440377232143 11.557246029575893  11.19440377232143 11.997840226004463  C 11.19440377232143 12.438434422433033  11.557246029575893 12.8012766796875  11.997840226004463 12.8012766796875  C 12.438434422433033 12.8012766796875  12.8012766796875 12.438434422433033  12.8012766796875 11.997840226004467  Z M 15.211585990513392 23.215713565848215  C 15.138153624441962 23.237311330915176  15.064721258370533 23.250269974888393  14.986969344308037 23.250269974888393  C 14.73643541015625 23.250269974888393  14.490220998883931 23.12932255580357  14.33903671875 22.921984126674104  L 12.494588571428569 20.39504691964286  C 12.153344054129464 20.416644684709823  11.842336397879464 20.416644684709823  11.501091905691965 20.39504691964286  L 9.656643733258928 22.917664578683034  C 9.457944400111607 23.189796277901785  9.112380334821427 23.310743696986606  8.788414034598215 23.215713590959822  C 7.9201843359375 22.969499204799106  7.095150142299108 22.6282546875  6.334909193638393 22.204938708147324  C 6.041179729352679 22.040795784040178  5.881356353236607 21.712509910714285  5.933190979352679 21.37990451450893  L 6.4169806556919635 18.28278662109375  C 6.170766269531249 18.062489522879464  5.9375105273437505 17.829233780691965  5.7172134291294645 17.58301939453125  L 2.620095535714286 18.066809070870537  C 2.2918096875 18.118643671875  1.9592042661830356 17.958820295758933  1.7950613420758934 17.665090856584825  C 1.3717453627232148 16.900530359933036  1.0305008454241076 16.07549616629464  0.7842864592633929 15.207266467633932  C 0.6935759012276786 14.883300167410715  0.8102037723214286 14.53773610212054  1.0823354715401783 14.339036768973218  L 3.6049531305803573 12.494588596540181  C 3.591994486607143 12.321806576450893  3.587674938616072 12.157663627232147  3.587674938616072 11.997840251116072  C 3.587674938616072 11.838016875000001  3.591994486607143 11.673873950892858  3.6049531305803573 11.501091905691965  L 1.0823354715401787 9.656643733258932  C 0.8102037723214288 9.457944400111609  0.6892563532366074 9.112380334821431  0.7842864592633932 8.788414034598215  C 1.0305008454241076 7.920184335937501  1.3717453627232148 7.095150142299109  1.7950613420758934 6.334909193638393  C 1.9592042661830358 6.041179729352679  2.2918096875 5.881356353236607  2.620095535714286 5.933190979352679  L 5.7172134291294645 6.4169806556919635  C 5.9375105273437505 6.170766269531249  6.170766269531249 5.9375105273437505  6.4169806556919635 5.7172134291294645  L 5.933190979352679 2.620095535714286  C 5.881356378348215 2.287490114397322  6.0411797544642845 1.9592042661830356  6.339228741629464 1.7950613420758934  C 7.1037892382812515 1.3717453627232148  7.9288234319196444 1.0305008454241076  8.792733582589287 0.7842864592633929  C 9.116699882812501 0.6935759012276786  9.46226394810268 0.8102037723214286  9.660963281250002 1.0823354715401783  L 11.505411453683035 3.6049531305803573  C 11.846655970982143 3.583355365513393  12.15334407924107 3.583355365513393  12.498908119419646 3.6049531305803573  L 14.343356291852679 1.0823354715401787  C 14.542055625 0.8102037723214288  14.887619690290181 0.6935759012276788  15.211585990513392 0.7842864592633932  C 16.075496141183038 1.0305008454241076  16.90053033482143 1.3717453627232148  17.665090831473215 1.7950613420758934  C 17.958820295758933 1.9592042661830358  18.118643671875 2.287490139508929  18.06680904575893 2.620095535714286  L 17.583019369419645 5.7172134291294645  C 17.82923375558036 5.9375105273437505  18.06248949776786 6.170766269531249  18.28278659598214 6.4126611077008935  L 21.37990448939732 5.928871431361608  C 21.708190337611608 5.877036830357143  22.040795758928574 6.0368602064732135  22.204938683035714 6.330589645647323  C 22.628254662388393 7.095150142299109  22.9694991796875 7.920184335937501  23.220033113839285 8.788414034598215  C 23.310743671875 9.11238033482143  23.194115800781248 9.457944400111609  22.9219841015625 9.656643733258932  L 20.39504691964286 11.501091880580356  C 20.408005563616072 11.67387390066964  20.412325111607142 11.838016849888392  20.412325111607142 11.997840226004463  C 20.412325111607142 12.157663602120534  20.408005563616072 12.321806526227682  20.39504691964286 12.494588571428569  L 22.917664578683034 14.339036743861605  C 23.189796277901785 14.537736077008926  23.30642414899554 14.883300142299106  23.215713590959822 15.20726644252232  C 22.969499204799106 16.075496141183034  22.6282546875 16.900530334821426  22.20061916015625 17.665090831473215  C 22.036476236049108 17.95882029575893  21.712509935825892 18.118643671875  21.375584966517856 18.06680904575893  L 18.28278659598214 17.587338917410715  C 18.06680904575893 17.83355330357143  17.82923375558036 18.06680904575893  17.583019369419645 18.28278659598214  L 18.06680904575893 21.37990448939732  C 18.118643646763395 21.712509910714285  17.958820270647323 22.040795758928574  17.665090831473215 22.204938683035714  C 16.90484990792411 22.628254662388393  16.079815689174108 22.9694991796875  15.211585990513392 23.215713565848215  Z M 8.071368565848214 18.084087237723214  L 7.609176654575893 21.055938189174107  C 7.959060267857142 21.22440066127232  8.326222073102679 21.375584941406252  8.702022999441963 21.505171456473214  L 10.47303880580357 19.0819034765625  C 10.641501277901785 18.848647734375  10.926591646205356 18.723380767299105  11.21168198939732 18.757937176339283  C 11.730028074776785 18.8184108984375  12.26997192522321 18.8184108984375  12.783998462611606 18.757937176339283  C 13.082047474888391 18.723380767299105  13.354179174107143 18.848647734375  13.522641646205354 19.0819034765625  L 15.293657452566961 21.505171456473214  C 15.66945837890625 21.37558494140625  16.036620184151783 21.22440066127232  16.386503797433036 21.055938189174107  L 15.924311861049107 18.084087262834817  C 15.881116356026784 17.798996919642853  15.993424679129461 17.509587003348212  16.218041325334823 17.332485435267856  C 16.628398660714286 17.004199587053566  17.004199561941963 16.632718208705356  17.32816586216518 16.222360898437497  C 17.509587003348216 15.99774425223214  17.79035779854911 15.881116381138387  18.079767689732144 15.92863143415178  L 21.05161861607143 16.390823370535713  C 21.220081088169643 16.040939757254463  21.371265368303575 15.673777952008926  21.500851883370537 15.297977025669638  L 19.077583903459825 13.526961219308028  C 18.844328161272323 13.358498747209818  18.71906119419643 13.073408378906247  18.753617603236606 12.788318035714283  C 18.783854464285717 12.529144980468747  18.80113265625 12.269971950334817  18.80113265625 12.002159799107138  C 18.80113265625 11.734347647879463  18.783854464285717 11.475174617745532  18.753617603236606 11.216001562499997  C 18.719061194196428 10.930911219308033  18.844328161272323 10.645820851004462  19.077583903459825 10.477358378906247  L 21.500851883370537 8.70634257254464  C 21.37126536830357 8.330541646205354  21.220081088169643 7.963379840959819  21.05161861607143 7.613496227678571  L 18.079767689732144 8.075688164062498  C 17.79467734654018 8.11888366908482  17.50526743024554 8.00657534598214  17.32816586216518 7.781958699776784  C 17.004199561941963 7.375920937499997  16.632718183593752 7.000120011160714  16.218041325334823 6.671834162946427  C 15.993424679129461 6.490413021763391  15.881116356026784 6.205322678571427  15.924311861049107 5.920232335379462  L 16.390823345424106 2.944061810825893  C 16.04093973214286 2.7755993387276785  15.673777926897323 2.624415058593751  15.297977000558035 2.4948285435267863  L 13.526961194196424 4.9180965234375  C 13.358498722098213 5.151352265625  13.082047474888391 5.280938780691965  12.78831801060268 5.242062823660714  C 12.274291473214284 5.1815891015624995  11.734347622767856 5.1815891015624995  11.216001537388392 5.242062823660714  C 10.926591646205356 5.276619232700893  10.645820825892855 5.151352265625  10.47303880580357 4.9180965234375  L 8.702022999441963 2.4948285435267863  C 8.326222073102677 2.624415058593751  7.959060267857142 2.7755993387276785  7.609176654575893 2.944061810825893  L 8.071368590959821 5.915912737165178  C 8.114564095982143 6.201003080357143  8.002255772879465 6.490412996651784  7.777639126674107 6.6675145647321425  C 7.367281791294644 6.991480864955356  6.995800438058036 7.367281791294644  6.667514589843748 7.777639101562499  C 6.486093448660713 8.002255747767856  6.201003105468749 8.114564070870536  5.915912762276786 8.071368565848214  L 2.944061810825893 7.609176654575893  C 2.7755993387276785 7.959060267857142  2.624415058593751 8.326222073102679  2.4948285435267863 8.702022999441963  L 4.9180965234375 10.47303880580357  C 5.151352265625 10.641501277901785  5.276619232700893 10.926591646205356  5.242062823660714 11.216001537388392  C 5.211825962611607 11.470855044642857  5.194547770647321 11.734347622767856  5.194547770647321 11.997840226004463  C 5.194547770647321 12.26565237723214  5.211825962611607 12.524825407366068  5.242062823660714 12.783998462611606  C 5.276619232700893 13.073408353794644  5.151352265625 13.354179174107143  4.9180965234375 13.526961194196424  L 2.4948285435267863 15.297977000558035  C 2.624415058593751 15.673777926897323  2.7755993387276785 16.040939732142853  2.944061810825893 16.390823345424106  L 5.915912737165178 15.928631409040177  C 6.201003080357143 15.885435904017854  6.490412996651784 15.997744227120535  6.6675145647321425 16.222360873325893  C 6.991480864955356 16.632718208705356  7.362962243303571 17.004199561941963  7.777639101562499 17.33248541015625  C 8.002255747767856 17.513906551339286  8.118883618861606 17.79899689453125  8.071368565848214 18.084087237723214  Z " fill-rule="nonzero" fill="#333333" stroke="none" />
  </g>
</svg>