<?xml version="1.0" encoding="utf-8"?>
<svg version="1.1" xmlns:xlink="http://www.w3.org/1999/xlink" width="12px" height="8px" xmlns="http://www.w3.org/2000/svg">
  <g transform="matrix(1 0 0 1 -1395 -1612 )">
    <path d="M 11.879759519038076 6.542955326460481  C 11.959919839679358 6.6345933562428385  12 6.739977090492554  12 6.8591065292096225  C 12 6.978235967926688  11.959919839679358 7.083619702176402  11.879759519038076 7.175257731958763  L 11.278557114228457 7.86254295532646  C 11.198396793587175 7.954180985108818  11.106212424849701 8  11.002004008016032 8  C 10.897795591182366 8  10.80561122244489 7.954180985108818  10.725450901803608 7.86254295532646  L 6 2.4604810996563575  L 1.2745490981963927 7.86254295532646  C 1.1943887775551103 7.954180985108818  1.1022044088176355 8  0.9979959919839679 8  C 0.8937875751503007 8  0.8016032064128259 7.954180985108818  0.721442885771543 7.86254295532646  L 0.12024048096192384 7.175257731958763  C 0.0400801603206414 7.083619702176402  0 6.978235967926688  0 6.8591065292096225  C 0 6.739977090492554  0.0400801603206414 6.6345933562428385  0.12024048096192384 6.542955326460481  L 5.723446893787575 0.13745704467353992  C 5.803607214428858 0.04581901489117879  5.895791583166334 0  6 0  C 6.104208416833668 0  6.196392785571143 0.04581901489117879  6.2765531062124245 0.13745704467353992  L 11.879759519038076 6.542955326460481  Z " fill-rule="nonzero" fill="#797979" stroke="none" transform="matrix(1 0 0 1 1395 1612 )" />
  </g>
</svg>