<?xml version="1.0" encoding="utf-8"?>
<svg version="1.1" xmlns:xlink="http://www.w3.org/1999/xlink" width="21px" height="25px" xmlns="http://www.w3.org/2000/svg">
  <g transform="matrix(1 0 0 1 -1256 -61 )">
    <path d="M 0 19.452058684932442  C 0.11635349368294505 16.942812904963063  2.915770883596601 14.886599824971814  7.036136270229189 14.131001868089339  C 7.036136270229189 14.131001868089339  7.616982877660384 14.019821100994637  7.616982877660384 14.019821100994637  C 7.735232261603524 13.69895361752975  7.850556557716641 13.358311314562687  7.850556557716641 13.150202376344271  C 7.616982877660384 13.038232720173687  7.423764575999741 12.924001581985564  7.191436766685892 12.491164442350097  C 6.840426227083714 12.05869545095004  5.948761953566515 10.548498796681201  5.7147549271650675 9.341761473602721  C 5.48091040564306 8.90645248152948  5.1698760663844645 7.925652989784416  5.051572514148176 7.490133627290935  C 5.051572514148176 7.0568757468149945  5.1698760663844645 6.735324559484343  5.4036664196133275 6.529477103283465  C 5.051572514148176 4.680321109409453  5.4036664196133275 3.038485164677968  6.258333748910097 1.964018243322846  C 7.269547445406002 0.755808327302714  8.744983414184409 0.321288224305359  9.638760251134398 0.1148622494488279  C 9.638760251134398 0.1148622494488279  9.638760251134398 0  9.638760251134398 0  C 9.638760251134398 0  11.543534111407702 0  11.543534111407702 0  C 14.574629291117414 0.20852967905888858  15.4307591643292 0.8686194651542417  15.819254162790116 1.3010358639492454  C 15.819254162790116 1.3010358639492454  15.819254162790116 1.4158981133980735  15.819254162790116 1.4158981133980735  L 16.598356723144782 1.4158981133980735  C 16.598356723144782 1.4158981133980735  15.66498286390325 3.03722294215655  15.66498286390325 3.03722294215655  C 16.014530859590415 4.019021693397735  16.131317699618542 5.114630841986573  15.896877326871904 6.415666705935813  C 16.13007182887613 6.624196384994703  16.245396124989263 6.962787576364465  16.245396124989263 7.39646619768088  C 16.245396124989263 7.924443359868059  15.819254162790116 8.792010972921123  15.586059660785908 9.24583256197513  C 15.352865158781684 10.321298742826375  14.420791338575716 11.963608021003393  14.108727801747298 12.396865901479332  C 13.875533299743077 12.717733384944216  13.643855509947015 12.830754893215978  13.445978735075602 13.039284572274864  C 13.445978735075602 13.26669499654993  13.566178177572088 13.585511368417514  13.644018014826461 13.906852185327931  C 13.644018014826461 13.906852185327931  14.222968731997451 14.020872953095816  14.222968731997451 14.020872953095816  C 18.227847317637465 14.775419057877116  20.949587375176183 16.943444016223772  20.949587375176183 19.340299399182097  C 20.949587375176183 19.65811651155356  21.063015781029492 20.704588132931022  20.949587375176584 21.029189691355093  C 20.949587375176584 21.029189691355093  20.40449184122301 21.30389690166446  20.40449184122301 21.30389690166446  C 20.24919134476631 21.51200583988288  20.17259737825435 21.622765866137108  20.017296881797648 21.850176290412172  C 20.017296881797648 21.850176290412172  19.394578183762665 22.49259496120771  19.394578183762665 22.49259496120771  C 19.394578183762665 22.49259496120771  19.23754430192521 22.606615728975594  19.23754430192521 22.606615728975594  C 19.042484278297515 22.71879575556641  18.926943309011808 22.830765411736998  18.6952113509226 23.038874349955414  C 18.6952113509226 23.038874349955414  17.451073993888215 23.699332284286182  17.451073993888215 23.699332284286182  C 17.374263354203663 23.792999713896243  17.21766281871139 23.792999713896243  17.140202159509066 23.792999713896243  C 17.140202159509066 23.792999713896243  14.806740427258667 24.568162119860663  14.806740427258667 24.568162119860663  L 14.651439930801965 24.568162119860663  L 11.541204874802313 25  L 10.415966921228847 25  C 10.415966921228847 25  6.957863086629628 24.66182954947072  6.957863086629628 24.66182954947072  C 6.957863086629628 24.66182954947072  4.338934449486723 24.273117605479744  2.0200981563864158 22.71879575556641  C 1.0052551842495678 22.07842819636818  0.8939935101225817 21.738206634241585  0.8939935101225817 21.738206634241585  C 0.8939935101225817 21.622765866137108  1.0498898578039186 21.828192581497515  0.8169661972654378 21.622765866137108  C 0.8169661972654378 21.622765866137108  0.5844217147789954 21.415866557835052  0.5844217147789954 21.415866557835052  C 0.2335736800562638 20.86695753883439  0 21.161173173369477  0 20.61021304277152  C 0 20.61021304277152  0 19.452058684932442  0 19.452058684932442  Z " fill-rule="nonzero" fill="#ffffff" stroke="none" transform="matrix(1 0 0 1 1256 61 )" />
  </g>
</svg>