<?xml version="1.0" encoding="utf-8"?>
<svg version="1.1" xmlns:xlink="http://www.w3.org/1999/xlink" width="9px" height="5px" xmlns="http://www.w3.org/2000/svg">
  <g transform="matrix(1 0 0 1 -1342 -68 )">
    <path d="M 8.146446609406727 0.14644660940672635  C 8.146446609406727 0.14644660940672635  4.5 3.792893218813452  4.5 3.792893218813452  C 4.5 3.792893218813452  0.853553390593274 0.14644660940672635  0.853553390593274 0.14644660940672635  C 0.6582912447176388 -0.04881553646890879  0.3417087552823612 -0.04881553646890879  0.14644660940672616 0.14644660940672635  C -0.048815536468908745 0.34170875528236155  -0.048815536468908745 0.6582912447176394  0.14644660940672616 0.8535533905932745  C 0.14644660940672616 0.8535533905932745  4.146446609406725 4.853553390593273  4.146446609406725 4.853553390593273  C 4.341708755282362 5.0488155364689105  4.658291244717638 5.0488155364689105  4.853553390593274 4.853553390593273  C 4.853553390593274 4.853553390593273  8.853553390593273 0.8535533905932745  8.853553390593273 0.8535533905932745  C 9.048815536468906 0.6582912447176394  9.048815536468906 0.34170875528236155  8.853553390593273 0.14644660940672635  C 8.658291244717638 -0.04881553646890879  8.341708755282362 -0.04881553646890879  8.146446609406727 0.14644660940672635  Z " fill-rule="nonzero" fill="#333333" stroke="none" transform="matrix(1 0 0 1 1342 68 )" />
  </g>
</svg>