<?xml version="1.0" encoding="utf-8"?>
<svg version="1.1" xmlns:xlink="http://www.w3.org/1999/xlink" width="88px" height="32px" xmlns="http://www.w3.org/2000/svg">
  <defs>
    <mask fill="white" id="clip2">
      <path d="M 0 30  L 0 2  C 0 0.8799999999999955  1.2906666666668267 0  2.933333333333333 0  L 53.77777777777422 0  L 85.06666666666666 0  C 86.70933333333318 0  88 0.8799999999999955  88 2  L 88 30  C 88 31.120000000000005  86.70933333333318 32  85.06666666666666 32  L 2.933333333333333 32  C 1.2906666666668267 32  0 31.120000000000005  0 30  Z " fill-rule="evenodd" />
    </mask>
  </defs>
  <g transform="matrix(1 0 0 1 -1237 -162 )">
    <path d="M 0 30  L 0 2  C 0 0.8799999999999955  1.2906666666668267 0  2.933333333333333 0  L 53.77777777777422 0  L 85.06666666666666 0  C 86.70933333333318 0  88 0.8799999999999955  88 2  L 88 30  C 88 31.120000000000005  86.70933333333318 32  85.06666666666666 32  L 2.933333333333333 32  C 1.2906666666668267 32  0 31.120000000000005  0 30  Z " fill-rule="nonzero" fill="#ffffff" stroke="none" transform="matrix(1 0 0 1 1237 162 )" />
    <path d="M 0 30  L 0 2  C 0 0.8799999999999955  1.2906666666668267 0  2.933333333333333 0  L 53.77777777777422 0  L 85.06666666666666 0  C 86.70933333333318 0  88 0.8799999999999955  88 2  L 88 30  C 88 31.120000000000005  86.70933333333318 32  85.06666666666666 32  L 2.933333333333333 32  C 1.2906666666668267 32  0 31.120000000000005  0 30  Z " stroke-width="2" stroke="#d9d9d9" fill="none" transform="matrix(1 0 0 1 1237 162 )" mask="url(#clip2)" />
  </g>
</svg>